<mxfile host="app.diagrams.net" modified="2022-07-09T05:26:57.286Z" agent="5.0 (Windows NT 10.0; Win64; x64) AppleWebKit/537.36 (KHTML, like Gecko) Chrome/103.0.0.0 Safari/537.36" etag="r572S8B-w6JZudxkDAnv" version="20.0.4" type="github">
  <diagram id="wcstuXzGgN0kLrQH1RGY" name="Page-1">
    <mxGraphModel dx="745" dy="451" grid="1" gridSize="10" guides="1" tooltips="1" connect="1" arrows="1" fold="1" page="1" pageScale="1" pageWidth="1169" pageHeight="827" math="0" shadow="0">
      <root>
        <mxCell id="0" />
        <mxCell id="1" parent="0" />
        <mxCell id="7qTlFcAMC9cwdPOA51x0-1" value="GitHub" style="rounded=0;whiteSpace=wrap;html=1;" vertex="1" parent="1">
          <mxGeometry x="120" y="100" width="220" height="60" as="geometry" />
        </mxCell>
        <mxCell id="7qTlFcAMC9cwdPOA51x0-3" value="GitHubActions" style="rounded=0;whiteSpace=wrap;html=1;" vertex="1" parent="1">
          <mxGeometry x="230" y="170" width="110" height="60" as="geometry" />
        </mxCell>
        <mxCell id="7qTlFcAMC9cwdPOA51x0-4" value="Git" style="rounded=0;whiteSpace=wrap;html=1;" vertex="1" parent="1">
          <mxGeometry x="120" y="170" width="110" height="60" as="geometry" />
        </mxCell>
        <mxCell id="7qTlFcAMC9cwdPOA51x0-8" value="" style="group" vertex="1" connectable="0" parent="1">
          <mxGeometry x="450" y="110" width="190" height="80" as="geometry" />
        </mxCell>
        <mxCell id="7qTlFcAMC9cwdPOA51x0-5" value="BaaS&lt;br&gt;&lt;br&gt;&lt;br&gt;" style="ellipse;shape=cloud;whiteSpace=wrap;html=1;" vertex="1" parent="7qTlFcAMC9cwdPOA51x0-8">
          <mxGeometry width="190" height="80" as="geometry" />
        </mxCell>
        <mxCell id="7qTlFcAMC9cwdPOA51x0-7" value="Page" style="strokeWidth=2;html=1;shape=mxgraph.flowchart.database;whiteSpace=wrap;" vertex="1" parent="7qTlFcAMC9cwdPOA51x0-8">
          <mxGeometry x="78" y="32" width="40" height="40" as="geometry" />
        </mxCell>
        <mxCell id="7qTlFcAMC9cwdPOA51x0-17" value="User" style="strokeWidth=2;html=1;shape=mxgraph.flowchart.database;whiteSpace=wrap;" vertex="1" parent="7qTlFcAMC9cwdPOA51x0-8">
          <mxGeometry x="135" y="30" width="40" height="40" as="geometry" />
        </mxCell>
        <mxCell id="7qTlFcAMC9cwdPOA51x0-22" value="Func&amp;nbsp; &amp;nbsp;" style="triangle;whiteSpace=wrap;html=1;" vertex="1" parent="7qTlFcAMC9cwdPOA51x0-8">
          <mxGeometry x="34" y="23" width="40" height="40" as="geometry" />
        </mxCell>
        <mxCell id="7qTlFcAMC9cwdPOA51x0-23" style="edgeStyle=none;rounded=0;orthogonalLoop=1;jettySize=auto;html=1;exitX=1;exitY=0.85;exitDx=0;exitDy=0;exitPerimeter=0;startArrow=oval;startFill=1;endArrow=oval;endFill=1;" edge="1" parent="7qTlFcAMC9cwdPOA51x0-8" source="7qTlFcAMC9cwdPOA51x0-7" target="7qTlFcAMC9cwdPOA51x0-7">
          <mxGeometry relative="1" as="geometry" />
        </mxCell>
        <mxCell id="7qTlFcAMC9cwdPOA51x0-9" value="" style="group" vertex="1" connectable="0" parent="1">
          <mxGeometry x="400" y="414" width="120" height="80" as="geometry" />
        </mxCell>
        <mxCell id="7qTlFcAMC9cwdPOA51x0-2" value="" style="ellipse;shape=cloud;whiteSpace=wrap;html=1;" vertex="1" parent="7qTlFcAMC9cwdPOA51x0-9">
          <mxGeometry width="120" height="80" as="geometry" />
        </mxCell>
        <mxCell id="7qTlFcAMC9cwdPOA51x0-6" value="IPFS" style="strokeWidth=2;html=1;shape=mxgraph.flowchart.database;whiteSpace=wrap;" vertex="1" parent="7qTlFcAMC9cwdPOA51x0-9">
          <mxGeometry x="40" y="20" width="40" height="40" as="geometry" />
        </mxCell>
        <mxCell id="7qTlFcAMC9cwdPOA51x0-29" value="" style="edgeStyle=orthogonalEdgeStyle;rounded=0;orthogonalLoop=1;jettySize=auto;html=1;startArrow=none;startFill=0;endArrow=classic;endFill=1;" edge="1" parent="1" source="7qTlFcAMC9cwdPOA51x0-10" target="7qTlFcAMC9cwdPOA51x0-28">
          <mxGeometry relative="1" as="geometry" />
        </mxCell>
        <mxCell id="7qTlFcAMC9cwdPOA51x0-10" value="trigger: time, api&lt;br&gt;updatedPageをデプロイ" style="strokeWidth=2;html=1;shape=mxgraph.flowchart.start_1;whiteSpace=wrap;" vertex="1" parent="1">
          <mxGeometry x="230" y="240" width="100" height="60" as="geometry" />
        </mxCell>
        <mxCell id="7qTlFcAMC9cwdPOA51x0-37" value="" style="edgeStyle=orthogonalEdgeStyle;rounded=0;orthogonalLoop=1;jettySize=auto;html=1;startArrow=none;startFill=0;endArrow=classic;endFill=1;" edge="1" parent="1" source="7qTlFcAMC9cwdPOA51x0-11" target="7qTlFcAMC9cwdPOA51x0-36">
          <mxGeometry relative="1" as="geometry" />
        </mxCell>
        <mxCell id="7qTlFcAMC9cwdPOA51x0-11" value="trigger: git push" style="strokeWidth=2;html=1;shape=mxgraph.flowchart.start_1;whiteSpace=wrap;" vertex="1" parent="1">
          <mxGeometry x="125" y="240" width="100" height="60" as="geometry" />
        </mxCell>
        <mxCell id="7qTlFcAMC9cwdPOA51x0-15" value="" style="edgeStyle=orthogonalEdgeStyle;rounded=0;orthogonalLoop=1;jettySize=auto;html=1;entryX=0.5;entryY=1;entryDx=0;entryDy=0;" edge="1" parent="1" source="7qTlFcAMC9cwdPOA51x0-12" target="7qTlFcAMC9cwdPOA51x0-18">
          <mxGeometry relative="1" as="geometry">
            <mxPoint x="470" y="230" as="targetPoint" />
          </mxGeometry>
        </mxCell>
        <mxCell id="7qTlFcAMC9cwdPOA51x0-21" value="ページ更新" style="edgeLabel;html=1;align=center;verticalAlign=middle;resizable=0;points=[];" vertex="1" connectable="0" parent="7qTlFcAMC9cwdPOA51x0-15">
          <mxGeometry x="-0.2667" y="1" relative="1" as="geometry">
            <mxPoint as="offset" />
          </mxGeometry>
        </mxCell>
        <mxCell id="7qTlFcAMC9cwdPOA51x0-12" value="browser-site" style="swimlane;" vertex="1" parent="1">
          <mxGeometry x="820" y="210" width="200" height="90" as="geometry" />
        </mxCell>
        <mxCell id="7qTlFcAMC9cwdPOA51x0-16" value="" style="rounded=0;orthogonalLoop=1;jettySize=auto;html=1;startArrow=oval;startFill=1;endArrow=oval;endFill=1;entryX=0.5;entryY=0;entryDx=0;entryDy=0;" edge="1" parent="1" source="7qTlFcAMC9cwdPOA51x0-5" target="7qTlFcAMC9cwdPOA51x0-18">
          <mxGeometry relative="1" as="geometry">
            <mxPoint x="473.57142857142867" y="210" as="targetPoint" />
          </mxGeometry>
        </mxCell>
        <mxCell id="7qTlFcAMC9cwdPOA51x0-18" value="更新一覧に追加" style="shape=process;whiteSpace=wrap;html=1;backgroundOutline=1;" vertex="1" parent="1">
          <mxGeometry x="610" y="210" width="120" height="20" as="geometry" />
        </mxCell>
        <mxCell id="7qTlFcAMC9cwdPOA51x0-25" style="edgeStyle=none;rounded=0;orthogonalLoop=1;jettySize=auto;html=1;entryX=0;entryY=0.75;entryDx=0;entryDy=0;startArrow=oval;startFill=1;endArrow=oval;endFill=1;" edge="1" parent="1" source="7qTlFcAMC9cwdPOA51x0-24" target="7qTlFcAMC9cwdPOA51x0-22">
          <mxGeometry relative="1" as="geometry" />
        </mxCell>
        <mxCell id="7qTlFcAMC9cwdPOA51x0-26" style="edgeStyle=none;rounded=0;orthogonalLoop=1;jettySize=auto;html=1;startArrow=none;startFill=0;endArrow=classic;endFill=1;" edge="1" parent="1" source="7qTlFcAMC9cwdPOA51x0-24" target="7qTlFcAMC9cwdPOA51x0-10">
          <mxGeometry relative="1" as="geometry" />
        </mxCell>
        <mxCell id="7qTlFcAMC9cwdPOA51x0-24" value="deploy page" style="shape=process;whiteSpace=wrap;html=1;backgroundOutline=1;" vertex="1" parent="1">
          <mxGeometry x="400" y="200" width="120" height="20" as="geometry" />
        </mxCell>
        <mxCell id="7qTlFcAMC9cwdPOA51x0-30" value="" style="edgeStyle=orthogonalEdgeStyle;rounded=0;orthogonalLoop=1;jettySize=auto;html=1;startArrow=none;startFill=0;endArrow=classic;endFill=1;entryX=0.446;entryY=0.097;entryDx=0;entryDy=0;entryPerimeter=0;" edge="1" parent="1" source="7qTlFcAMC9cwdPOA51x0-28" target="7qTlFcAMC9cwdPOA51x0-2">
          <mxGeometry relative="1" as="geometry">
            <mxPoint x="400" y="360" as="targetPoint" />
          </mxGeometry>
        </mxCell>
        <mxCell id="7qTlFcAMC9cwdPOA51x0-31" value="upload" style="edgeLabel;html=1;align=center;verticalAlign=middle;resizable=0;points=[];" vertex="1" connectable="0" parent="7qTlFcAMC9cwdPOA51x0-30">
          <mxGeometry x="-0.1509" y="2" relative="1" as="geometry">
            <mxPoint as="offset" />
          </mxGeometry>
        </mxCell>
        <mxCell id="7qTlFcAMC9cwdPOA51x0-34" style="edgeStyle=orthogonalEdgeStyle;rounded=0;orthogonalLoop=1;jettySize=auto;html=1;startArrow=none;startFill=0;endArrow=classic;endFill=1;" edge="1" parent="1" source="7qTlFcAMC9cwdPOA51x0-28" target="7qTlFcAMC9cwdPOA51x0-7">
          <mxGeometry relative="1" as="geometry" />
        </mxCell>
        <mxCell id="7qTlFcAMC9cwdPOA51x0-35" value="upload" style="edgeLabel;html=1;align=center;verticalAlign=middle;resizable=0;points=[];" vertex="1" connectable="0" parent="7qTlFcAMC9cwdPOA51x0-34">
          <mxGeometry x="-0.3014" relative="1" as="geometry">
            <mxPoint as="offset" />
          </mxGeometry>
        </mxCell>
        <mxCell id="7qTlFcAMC9cwdPOA51x0-28" value="そのままor変換&lt;br&gt;txt?html?vue?" style="whiteSpace=wrap;html=1;strokeWidth=2;" vertex="1" parent="1">
          <mxGeometry x="220" y="354" width="120" height="60" as="geometry" />
        </mxCell>
        <mxCell id="7qTlFcAMC9cwdPOA51x0-39" value="" style="edgeStyle=orthogonalEdgeStyle;rounded=0;orthogonalLoop=1;jettySize=auto;html=1;startArrow=none;startFill=0;endArrow=classic;endFill=1;" edge="1" parent="1" source="7qTlFcAMC9cwdPOA51x0-36" target="7qTlFcAMC9cwdPOA51x0-38">
          <mxGeometry relative="1" as="geometry" />
        </mxCell>
        <mxCell id="7qTlFcAMC9cwdPOA51x0-36" value="nxm build" style="whiteSpace=wrap;html=1;strokeWidth=2;" vertex="1" parent="1">
          <mxGeometry x="115" y="380" width="120" height="60" as="geometry" />
        </mxCell>
        <mxCell id="7qTlFcAMC9cwdPOA51x0-38" value="commit to git-page-branch" style="whiteSpace=wrap;html=1;strokeWidth=2;" vertex="1" parent="1">
          <mxGeometry x="115" y="520" width="120" height="60" as="geometry" />
        </mxCell>
      </root>
    </mxGraphModel>
  </diagram>
</mxfile>
